<svg xmlns="http://www.w3.org/2000/svg" viewBox="0 0 513.95 163.39" height="150" width="473.6842105263158"><defs><style>.cls-1,.cls-2{fill:#e9c71d;}.cls-2{fill-rule:evenodd;}</style></defs><g id="Layer_2" data-name="Layer 2"><g id="Layer_1-2" data-name="Layer 1"><path class="cls-1" d="M217.83,80c-1-1.63-3.67-3.18-6.76-3.18-4,0-5.91,1.67-5.91,3.79,0,2.48,2.93,3.17,6.35,3.58,6,.73,11.49,2.28,11.49,9.08,0,6.35-5.62,9.08-12,9.08-5.83,0-10.31-1.79-12.42-7L203.09,93c1.26,3.13,4.56,4.51,8,4.51s6.55-1.18,6.55-4.27c0-2.69-2.81-3.79-6.59-4.19-5.83-.7-11.2-2.24-11.2-8.64,0-5.86,5.78-8.26,11-8.3,4.44,0,9,1.26,11.2,5.66Z"></path><path class="cls-1" d="M232.2,75.86c0,3.87-5.86,3.87-5.86,0S232.2,72,232.2,75.86Zm-5.41,5.58V101.6h5V81.44Z"></path><path class="cls-1" d="M243.24,75.86v5.7h5.53v4.28H243.2v8.67c0,1.92,1.05,2.85,2.6,2.85a5.58,5.58,0,0,0,2.4-.61l1.39,4.24a11.11,11.11,0,0,1-4.11.85c-4.36.16-7.21-2.32-7.21-7.33V85.84h-3.75V81.56h3.75V76.39Z"></path><path class="cls-1" d="M256.72,93.33c.32,2.48,2.48,4.28,6,4.28a8.31,8.31,0,0,0,5.38-1.88l3.17,3.14a12.33,12.33,0,0,1-8.63,3.26c-6.92,0-11-4.28-11-10.71,0-6.11,4.15-10.51,10.66-10.51,6.72,0,10.92,4.15,10.14,12.42Zm10.91-4.11c-.33-2.61-2.36-3.91-5.21-3.91-2.69,0-4.89,1.3-5.62,3.91Z"></path><path class="cls-1" d="M289.33,86.86a6.73,6.73,0,0,0-5-1.8c-2.37,0-3.67.74-3.67,2s1.18,2,3.75,2.2c3.78.24,8.59,1.1,8.59,6.43,0,3.55-2.89,6.6-8.63,6.6-3.18,0-6.36-.53-9.29-3.58l2.45-3.55c1.42,1.59,4.68,2.77,6.92,2.81,1.87,0,3.62-.93,3.62-2.4s-1.14-1.95-4-2.12c-3.79-.28-8.31-1.67-8.31-6.23S280.62,81,284.28,81a10.76,10.76,0,0,1,7.82,2.65Z"></path><path class="cls-1" d="M327.37,93.29c0,1.67.73,3.09,2.56,3.09v5.34c-2.12,0-4.48-.49-5.37-3.75-1.88,3.06-5.13,4-8.15,4-6.23,0-11.28-2-11.32-9a6.58,6.58,0,0,1,4.4-5.94c-2.56-.82-3.83-3.54-3.83-5.78,0-6.07,5.79-8.55,10.87-8.55s10.39,1.91,10.43,8.06h-5.09c0-2.61-2.57-3.5-5.46-3.5-4.19,0-5.58,2.32-5.53,4,0,2.89,3.58,3.7,5.49,3.7h13.36v4.24h-2.36Zm-17-.33c0,3,3,4.2,5.94,4.2,1.92,0,5.95-1,5.95-3.91V89.14h-6.19C312.14,89.14,310.39,91.25,310.39,93Z"></path><path class="cls-1" d="M373.34,101.6h-4.56l-3.54-9-3-9-3,9.08-3.46,8.88h-4.56L340.76,73.09h6l6.72,20.57,6.92-20.57h3.5l7.13,20.57,6.51-20.57h6Z"></path><path class="cls-1" d="M402.66,91.58c0,5.78-4,10.46-10.46,10.46s-10.43-4.68-10.43-10.46,4-10.46,10.38-10.46A10.14,10.14,0,0,1,402.66,91.58Zm-15.92,0c0,3,1.83,5.9,5.46,5.9s5.45-2.85,5.45-5.9-2.12-5.94-5.45-5.94C388.61,85.64,386.74,88.57,386.74,91.58Z"></path><path class="cls-1" d="M420.86,101.6V91.09c0-3-1.67-5.37-4.84-5.37s-5.13,2.56-5.13,5.62V101.6H406V81.48h4.44l.32,2.73a9.05,9.05,0,0,1,6.6-3c4.72,0,8.51,3.54,8.51,9.85V101.6Z"></path><path class="cls-1" d="M451,73.13V101.6h-4.65L446,98.83a7.31,7.31,0,0,1-6.48,3.21c-5.9,0-10.34-3.9-10.34-10.5,0-6.92,4.36-10.51,10.22-10.51,2.12,0,5.42,1.14,6.6,3.22V73.13ZM434.14,91.54a5.76,5.76,0,1,0,11.52,0,5.72,5.72,0,0,0-5.82-5.86A5.53,5.53,0,0,0,434.14,91.54Z"></path><path class="cls-1" d="M460,93.33c.32,2.48,2.48,4.28,6,4.28a8.31,8.31,0,0,0,5.38-1.88l3.17,3.14a12.33,12.33,0,0,1-8.63,3.26c-6.92,0-11-4.28-11-10.71,0-6.11,4.16-10.51,10.67-10.51,6.72,0,10.92,4.15,10.14,12.42Zm10.91-4.11c-.33-2.61-2.36-3.91-5.21-3.91-2.69,0-4.89,1.3-5.62,3.91Z"></path><path class="cls-1" d="M484.06,81.52l.37,2.32C486,81.36,488.05,81,490.09,81a7.61,7.61,0,0,1,5.17,1.92L493,87.22a5,5,0,0,0-3.58-1.3c-2.61,0-5,1.38-5,5.09V101.6h-5V81.52Z"></path><path class="cls-1" d="M510.25,86.86a6.77,6.77,0,0,0-5-1.8c-2.36,0-3.67.74-3.67,2s1.18,2,3.75,2.2c3.79.24,8.59,1.1,8.59,6.43,0,3.55-2.89,6.6-8.63,6.6-3.18,0-6.35-.53-9.28-3.58l2.44-3.55c1.42,1.59,4.68,2.77,6.92,2.81,1.87,0,3.62-.93,3.62-2.4s-1.14-1.95-4-2.12c-3.78-.28-8.3-1.67-8.3-6.23S501.53,81,505.2,81A10.75,10.75,0,0,1,513,83.6Z"></path><polygon class="cls-2" points="71.36 2.46 75.79 1.16 74.49 5.59 75.79 10.02 71.36 8.72 66.93 10.02 68.23 5.59 66.93 1.16 71.36 2.46"></polygon><polygon class="cls-2" points="172 85.34 176.43 84.04 175.13 88.47 176.43 92.91 172 91.61 167.57 92.91 168.87 88.47 167.57 84.04 172 85.34"></polygon><polygon class="cls-2" points="137.49 23.07 139.5 22.48 138.91 24.5 139.5 26.52 137.49 25.93 135.47 26.52 136.06 24.5 135.47 22.48 137.49 23.07"></polygon><polygon class="cls-2" points="148.63 120.3 150.65 119.71 150.06 121.73 150.65 123.75 148.63 123.16 146.61 123.75 147.2 121.73 146.61 119.71 148.63 120.3"></polygon><polygon class="cls-2" points="119.45 1.64 125.04 0 123.41 5.59 125.04 11.18 119.45 9.54 113.86 11.18 115.5 5.59 113.86 0 119.45 1.64"></polygon><circle class="cls-1" cx="30.59" cy="8.28" r="2.69"></circle><path class="cls-2" d="M153.13,88.47a1.25,1.25,0,1,1-1.25-1.25A1.25,1.25,0,0,1,153.13,88.47Z"></path><path class="cls-2" d="M161.26,31.59A1.26,1.26,0,1,1,160,30.34,1.25,1.25,0,0,1,161.26,31.59Z"></path><path class="cls-2" d="M167.57,57.66a1.25,1.25,0,1,1-1.25-1.25A1.25,1.25,0,0,1,167.57,57.66Z"></path><path class="cls-2" d="M135.47,151.25a1.25,1.25,0,1,1-1.25-1.25A1.25,1.25,0,0,1,135.47,151.25Z"></path><path class="cls-2" d="M151.88,49.91a3.25,3.25,0,1,1-3.25-3.25A3.25,3.25,0,0,1,151.88,49.91Z"></path><path class="cls-1" d="M31.83,102.36l-.06,0,.05,0Z"></path><path class="cls-1" d="M78,57.66A10.64,10.64,0,1,0,88.66,68.3,10.64,10.64,0,0,0,78,57.66Zm0,19.21a8.57,8.57,0,1,1,8.57-8.57A8.57,8.57,0,0,1,78,76.87Z"></path><path class="cls-1" d="M70.94,14.38C31.72,14.39-.12,46.64,0,86.2A69.93,69.93,0,0,0,2.11,103a41.18,41.18,0,0,1,16-7.25c.38-.12.59-.17.59-.17l0,.06c.53-.11.83-.15.83-.15a79.22,79.22,0,0,0-5.47,5.94L12,104a63.34,63.34,0,0,0-6.23,9.74s15.51-17.2,22.19-19.54l4.29,6.94c-.28.17-.56.35-.84.51h0l-.05,0-.07,0C29.44,103,9.23,117,11.41,137.57a0,0,0,0,0,0,0c1.57,8.23,6.87,17,18.23,25.79-.62-.63-12.92-13.59-13.29-29.47h0a1.08,1.08,0,0,0,0-.16c0-.89,0-1.77.06-2.67,0,0,0,0,.05.07,0-.12,0-.24.05-.35.17-2.5.53-5.79,1.23-7.1,0,0,11.15,28.83,46.21,32.61,1.89.21,3.5.41,4.82.61.84,0,1.68,0,2.52,0a71.38,71.38,0,0,0,71.43-71.57C142.61,46.11,110.52,14.38,70.94,14.38Zm42.18,31.8a67.47,67.47,0,0,1-6.42,16.21,18.83,18.83,0,0,1-11-17.79C98.51,44,110.62,45.1,113.12,46.18ZM85.75,24a3.95,3.95,0,1,1-3.94,3.94A3.94,3.94,0,0,1,85.75,24ZM53.59,30.09a2.39,2.39,0,1,1-2.39,2.39A2.39,2.39,0,0,1,53.59,30.09ZM20,76.07A50.09,50.09,0,0,0,5.75,79.2L5,79.47a.37.37,0,0,1-.17,0A1.13,1.13,0,0,1,5,79.22,52.88,52.88,0,0,1,20.09,64.93a32.45,32.45,0,0,1,21-4.68c2,.24,3.88.8,5.82,1.22a6.16,6.16,0,0,1,.6.24A100.44,100.44,0,0,0,32.38,78.49c-1.47-.56-2.83-1.17-4.24-1.61A22.79,22.79,0,0,0,20,76.07Zm5.37,12.37,4.4-.34,9.28,14.57-2.38,3.51Zm43.29,14c-2.71,8.87-8.41,15.26-16.45,19.69a55.56,55.56,0,0,1-17.19,5.77l-.49,0c.82-.8,1.55-1.49,2.25-2.21a46.76,46.76,0,0,0,8-10.36,21.38,21.38,0,0,0,3-11.63,100.8,100.8,0,0,0,22.06-6C69.43,99.4,69.15,101,68.7,102.43Zm11.72,9.4a2.09,2.09,0,1,1,2.09-2.08A2.09,2.09,0,0,1,80.42,111.83Zm6.34,31.74a3.29,3.29,0,1,1,3.29-3.29A3.29,3.29,0,0,1,86.76,143.57ZM82.05,88.81A84.25,84.25,0,0,1,56.59,99.62a111.44,111.44,0,0,1-16.23,2.78.71.71,0,0,1-.8-.38l-1.19-1.92L67.68,86.49S51.76,87.5,55,70.75L31.8,89.44l-1.66-2.68a.72.72,0,0,1,0-.89c6.58-10.42,14.48-19.66,24.48-27l.46-.32a12,12,0,0,0,1.47-1,74.71,74.71,0,0,1,13.08-7.2A97.28,97.28,0,0,1,84,45.89a79.9,79.9,0,0,1,8.72-1.21h.58c.19,9,4.24,15.56,12.23,19.79-.9,1.39-1.76,2.8-2.69,4.15A73.5,73.5,0,0,1,82.05,88.81Zm23.86,34-3.84-1.13-3.84,1.13,1.13-3.85-1.13-3.83,3.84,1.12,3.84-1.12-1.13,3.83Zm8.27-34.13-4.78-1.4-4.79,1.4,1.4-4.78-1.4-4.79,4.79,1.4,4.78-1.4-1.4,4.79Zm1.25-23.18a2.09,2.09,0,1,1,2.08-2.08A2.09,2.09,0,0,1,115.43,65.47Zm6,41.73a2.55,2.55,0,1,1,2.55-2.55A2.55,2.55,0,0,1,121.45,107.2Z"></path></g></g></svg>