<?xml version="1.0" encoding="iso-8859-1"?>
<!-- Generator: Adobe Illustrator 19.0.0, SVG Export Plug-In . SVG Version: 6.00 Build 0)  -->
<svg version="1.1" id="Layer_1" xmlns="http://www.w3.org/2000/svg" xmlns:xlink="http://www.w3.org/1999/xlink" x="0px" y="0px"
	 viewBox="0 0 512 512" style="enable-background:new 0 0 512 512;" xml:space="preserve">
<circle style="fill:#273B7A;" cx="256" cy="256" r="256"/>
<path style="fill:#121149;" d="M270.941,137.625L155.077,253.992l38.862,122.106l-13.321,31.03l103.345,103.345
	C412.191,496.54,512,387.934,512,256c0-1.408-0.031-2.81-0.053-4.215L387.88,127.719L270.941,137.625z"/>
<circle style="fill:#FEE187;" cx="333.317" cy="182.269" r="25.719"/>
<path style="fill:#FFC61B;" d="M316.388,162.961c-0.422,0.371-0.85,0.729-1.252,1.131c-10.043,10.043-10.043,26.327,0,36.373
	c10.043,10.045,26.328,10.043,36.373,0c0.402-0.402,0.762-0.831,1.131-1.252L316.388,162.961z"/>
<g>
	<path style="fill:#FEE187;" d="M152.116,251.787L152.116,251.787c-5.022-5.022-5.022-13.164,0-18.185l109.116-109.116
		c5.022-5.022,13.164-5.022,18.185,0l0,0c5.022,5.022,5.022,13.164,0,18.185L170.301,251.787
		C165.279,256.809,157.139,256.809,152.116,251.787z"/>
	<path style="fill:#FEE187;" d="M147.82,238.495L147.82,238.495c6.725-2.288,14.031,1.31,16.317,8.037l49.671,146.129
		c2.286,6.723-1.312,14.027-8.035,16.313l0,0c-6.725,2.288-14.031-1.31-16.317-8.037l-49.671-146.129
		C137.5,248.086,141.097,240.781,147.82,238.495z"/>
</g>
<path style="fill:#71E2EF;" d="M299.698,112.833c-4.624-4.446-10.892-7.194-17.813-7.194c-14.205,0-25.719,11.514-25.719,25.719
	c0,7.011,2.813,13.36,7.363,17.999c-13.496,28.619-8.425,63.817,15.236,87.478l109.116-109.116
	C364.025,103.864,328.44,98.914,299.698,112.833z"/>
<path style="fill:#38C6D9;" d="M256.165,131.358c0,7.011,2.813,13.36,7.363,17.999c-13.496,28.619-8.425,63.817,15.236,87.478
	l55.749-55.749l-69.296-69.296C259.686,116.508,256.165,123.518,256.165,131.358z"/>
<g>
	<circle style="fill:#71E2EF;" cx="153.29" cy="254" r="25.719"/>
	<path style="fill:#71E2EF;" d="M294.743,413.762H191.867c-7.102,0-12.859-5.758-12.859-12.859l0,0
		c0-7.102,5.758-12.859,12.859-12.859h102.876c7.102,0,12.859,5.758,12.859,12.859l0,0
		C307.603,408.004,301.846,413.762,294.743,413.762z"/>
</g>
<path style="fill:#38C6D9;" d="M191.867,388.043c-7.102,0-12.86,5.758-12.86,12.859l0,0c0,7.102,5.758,12.859,12.86,12.859h50.916
	v-25.719h-50.916V388.043z"/>
<g>
</g>
<g>
</g>
<g>
</g>
<g>
</g>
<g>
</g>
<g>
</g>
<g>
</g>
<g>
</g>
<g>
</g>
<g>
</g>
<g>
</g>
<g>
</g>
<g>
</g>
<g>
</g>
<g>
</g>
</svg>
