<svg xmlns="http://www.w3.org/2000/svg" xmlns:xlink="http://www.w3.org/1999/xlink" version="1.1" width="1000" height="1000" viewBox="0 0 1000 1000" xml:space="preserve">
<desc>Created with Fabric.js 3.5.0</desc>
<defs>
</defs>
<rect x="0" y="0" width="100%" height="100%" fill="#ffffff"/>
<g transform="matrix(0.3425 0 0 0.3425 95.4595 95.4595)" id="418866">
<g style="" vector-effect="non-scaling-stroke">
		<g transform="matrix(1 0 0 1 -0.238 0.028)">
<path style="stroke: none; stroke-width: 1; stroke-dasharray: none; stroke-linecap: butt; stroke-dashoffset: 0; stroke-linejoin: miter; stroke-miterlimit: 4; is-custom-font: none; font-file-url: none; fill: rgb(149,191,70); fill-rule: nonzero; opacity: 1;" transform=" translate(-127.762, -146.028)" d="M 223.774 57.34 c -0.201 -1.46 -1.48 -2.268 -2.537 -2.357 c -1.055 -0.088 -23.383 -1.743 -23.383 -1.743 s -15.507 -15.395 -17.209 -17.099 c -1.703 -1.703 -5.029 -1.185 -6.32 -0.805 c -0.19 0.056 -3.388 1.043 -8.678 2.68 c -5.18 -14.906 -14.322 -28.604 -30.405 -28.604 c -0.444 0 -0.901 0.018 -1.358 0.044 C 129.31 3.407 123.644 0.779 118.75 0.779 c -37.465 0 -55.364 46.835 -60.976 70.635 c -14.558 4.511 -24.9 7.718 -26.221 8.133 c -8.126 2.549 -8.383 2.805 -9.45 10.462 C 21.3 95.806 0.038 260.235 0.038 260.235 l 165.678 31.042 l 89.77 -19.42 S 223.973 58.8 223.775 57.34 z M 156.49 40.848 l -14.019 4.339 c 0.005 -0.988 0.01 -1.96 0.01 -3.023 c 0 -9.264 -1.286 -16.723 -3.349 -22.636 c 8.287 1.04 13.806 10.469 17.358 21.32 z m -27.638 -19.483 c 2.304 5.773 3.802 14.058 3.802 25.238 c 0 0.572 -0.005 1.095 -0.01 1.624 c -9.117 2.824 -19.024 5.89 -28.953 8.966 c 5.575 -21.516 16.025 -31.908 25.161 -35.828 z m -11.131 -10.537 c 1.617 0 3.246 0.549 4.805 1.622 c -12.007 5.65 -24.877 19.88 -30.312 48.297 l -22.886 7.088 C 75.694 46.16 90.81 10.828 117.72 10.828 z" stroke-linecap="round"/>
</g>
		<g transform="matrix(1 0 0 1 82.605 17.1585)">
<path style="stroke: none; stroke-width: 1; stroke-dasharray: none; stroke-linecap: butt; stroke-dashoffset: 0; stroke-linejoin: miter; stroke-miterlimit: 4; is-custom-font: none; font-file-url: none; fill: rgb(94,142,62); fill-rule: nonzero; opacity: 1;" transform=" translate(-210.605, -163.1585)" d="M 221.237 54.983 c -1.055 -0.088 -23.383 -1.743 -23.383 -1.743 s -15.507 -15.395 -17.209 -17.099 c -0.637 -0.634 -1.496 -0.959 -2.394 -1.099 l -12.527 256.233 l 89.762 -19.418 S 223.972 58.8 223.774 57.34 c -0.201 -1.46 -1.48 -2.268 -2.537 -2.357" stroke-linecap="round"/>
</g>
		<g transform="matrix(1 0 0 1 -40.7685 27.9285)">
<path style="stroke: none; stroke-width: 1; stroke-dasharray: none; stroke-linecap: butt; stroke-dashoffset: 0; stroke-linejoin: miter; stroke-miterlimit: 4; is-custom-font: none; font-file-url: none; fill: rgb(255,255,255); fill-rule: nonzero; opacity: 1;" transform=" translate(-87.2315, -173.9285)" d="M 135.242 104.585 l -11.069 32.926 s -9.698 -5.176 -21.586 -5.176 c -17.428 0 -18.305 10.937 -18.305 13.693 c 0 15.038 39.2 20.8 39.2 56.024 c 0 27.713 -17.577 45.558 -41.277 45.558 c -28.44 0 -42.984 -17.7 -42.984 -17.7 l 7.615 -25.16 s 14.95 12.835 27.565 12.835 c 8.243 0 11.596 -6.49 11.596 -11.232 c 0 -19.616 -32.16 -20.491 -32.16 -52.724 c 0 -27.129 19.472 -53.382 58.778 -53.382 c 15.145 0 22.627 4.338 22.627 4.338" stroke-linecap="round"/>
</g>
</g>
</g>
</svg>